<?xml version="1.0" standalone="no"?>
<!DOCTYPE svg PUBLIC "-//W3C//DTD SVG 20010904//EN"
 "http://www.w3.org/TR/2001/REC-SVG-20010904/DTD/svg10.dtd">
<svg version="1.0" xmlns="http://www.w3.org/2000/svg"
 width="206.000000pt" height="206.000000pt" viewBox="0 0 206.000000 206.000000"
 preserveAspectRatio="xMidYMid meet">
<metadata>
Created by potrace 1.11, written by Peter Selinger 2001-2013
</metadata>
<g transform="translate(0.000000,206.000000) scale(0.100000,-0.100000)"
fill="#000000" stroke="none">
<path d="M0 1030 l0 -1030 1030 0 1030 0 0 1030 0 1030 -1030 0 -1030 0 0
-1030z m650 479 c113 -6 205 -11 206 -12 0 -1 12 -22 26 -47 l26 -45 -33 -174
c-25 -131 -38 -179 -53 -194 l-21 -20 22 -38 22 -37 -76 -114 c-103 -154 -99
-142 -53 -134 21 4 47 9 56 12 17 5 17 5 -3 -78 -8 -30 -20 -43 -67 -71 l-57
-35 -302 -7 c-242 -6 -303 -5 -303 5 0 12 207 883 231 973 l10 39 82 -6 c45
-4 174 -11 287 -17z m1134 1 c116 -6 215 -15 221 -20 7 -6 20 -28 30 -50 18
-39 18 -42 -11 -202 -23 -131 -34 -168 -53 -191 -19 -22 -22 -33 -14 -46 5 -9
16 -25 23 -37 11 -17 6 -46 -30 -195 l-42 -175 -56 -36 -57 -36 -307 -7 -307
-7 9 33 c5 19 52 218 105 444 96 406 98 411 142 477 l45 67 47 -5 c25 -2 140
-9 255 -14z"/>
<path d="M475 1309 c-26 -114 -35 -162 -32 -165 7 -7 158 -26 164 -20 7 7 32
131 33 162 0 18 -8 22 -51 28 -29 4 -64 10 -80 13 -24 4 -29 1 -34 -18z"/>
<path d="M391 923 c-5 -21 -18 -75 -29 -120 l-19 -83 21 1 c31 0 175 25 179
30 5 6 47 155 47 166 0 5 -35 15 -77 22 -43 7 -86 14 -95 17 -13 4 -19 -4 -27
-33z"/>
<path d="M1627 1324 c-8 -14 -39 -175 -35 -180 7 -7 158 -28 163 -23 5 5 35
155 35 175 0 6 -23 14 -51 18 -29 4 -64 10 -79 13 -15 3 -30 1 -33 -3z"/>
<path d="M1544 946 c-10 -29 -52 -221 -49 -225 8 -7 180 22 191 33 11 11 58
166 52 171 -2 1 -45 9 -96 17 -67 11 -95 12 -98 4z"/>
</g>
</svg>
